<svg width="20" height="20" viewBox="0 0 20 20" fill="none" xmlns="http://www.w3.org/2000/svg">
<path d="M13.566 5.03922V5.03934L13.5762 5.03909C14.822 5.00841 16.009 5.52756 16.8147 6.44477C15.6288 7.32686 14.9043 8.68474 14.9043 10.1846C14.9043 11.9127 15.8816 13.4977 17.4017 14.2776C17.1155 15.078 16.7205 15.8258 16.2396 16.5211C15.8155 17.1097 15.4115 17.6636 14.963 18.0751C14.5203 18.4813 14.0726 18.7124 13.566 18.7124C13.0287 18.7124 12.6844 18.5679 12.2542 18.3873C12.2397 18.3813 12.2252 18.3751 12.2105 18.369C11.7447 18.1737 11.2069 17.9608 10.3611 17.9608C9.5324 17.9608 8.96459 18.1846 8.47885 18.3876C8.46073 18.3952 8.44277 18.4027 8.42496 18.4102C7.96847 18.6012 7.61305 18.75 7.11818 18.75C6.64704 18.75 6.22788 18.5446 5.79257 18.1455C5.3498 17.7396 4.92635 17.1669 4.44753 16.4878C3.23286 14.6734 2.53609 12.5738 2.4987 10.3691C2.50019 6.86086 4.77419 5.0768 6.96557 5.0768C7.52986 5.0768 8.05806 5.25655 8.58334 5.46166C8.64194 5.48454 8.70134 5.50807 8.76111 5.53174C8.95907 5.61016 9.16097 5.69014 9.35037 5.75312C9.59846 5.83562 9.86543 5.90359 10.1322 5.90359C10.3925 5.90359 10.6641 5.8315 10.9179 5.74736C11.0933 5.68922 11.2859 5.61598 11.4794 5.54241C11.5654 5.50969 11.6517 5.4769 11.7366 5.44533C12.3111 5.23199 12.9198 5.03922 13.566 5.03922ZM12.5638 2.77191L12.5637 2.77183L12.5573 2.77957C12.0071 3.44908 11.215 3.90239 10.3612 4.00508C10.4104 3.15574 10.7491 2.37238 11.3182 1.74584L11.3182 1.74588L11.323 1.74037C11.8834 1.10125 12.648 0.659307 13.4865 0.48139C13.4291 1.32658 13.1196 2.12772 12.5638 2.77191Z" fill="black" stroke="#030712" stroke-width="0.833333"/>
</svg>
