<svg width="21" height="20" viewBox="0 0 21 20" fill="none" xmlns="http://www.w3.org/2000/svg">
<path d="M7.48993 2.06519L6.77293 2.28119C6.13451 2.47372 5.56437 2.84462 5.12962 3.35023C4.69487 3.85585 4.41361 4.47513 4.31893 5.1352C4.02193 7.2032 4.68593 9.6212 6.28693 12.3942C7.88393 15.1602 9.64193 16.9422 11.5769 17.7222C12.1987 17.9728 12.8793 18.0395 13.5378 17.9146C14.1964 17.7896 14.8052 17.4781 15.2919 17.0172L15.8339 16.5032C16.1859 16.1701 16.4049 15.7206 16.4504 15.2381C16.4958 14.7557 16.3645 14.2731 16.0809 13.8802L14.7249 12.0002C14.5416 11.7464 14.2834 11.5563 13.9867 11.4566C13.6899 11.3569 13.3693 11.3526 13.0699 11.4442L11.0189 12.0712L10.9659 12.0812C10.7399 12.1142 10.2179 11.6252 9.56793 10.4992C8.88793 9.3212 8.74793 8.63219 8.93493 8.45419L9.97793 7.48119C10.359 7.1254 10.6192 6.6594 10.7223 6.14838C10.8254 5.63736 10.7662 5.10689 10.5529 4.63119L9.89093 3.16019C9.69187 2.71754 9.33863 2.36237 8.89706 2.16091C8.45549 1.95944 7.95473 1.92542 7.48993 2.06519ZM8.98093 3.57019L9.64093 5.04119C9.76901 5.32651 9.80471 5.64473 9.74303 5.95134C9.68135 6.25794 9.52538 6.5376 9.29693 6.75119L8.25093 7.72519C7.58093 8.35919 7.80293 9.4412 8.70293 10.9992C9.54893 12.4652 10.3209 13.1892 11.1509 13.0632L11.2749 13.0372L13.3629 12.4002C13.4627 12.3695 13.5696 12.3709 13.6686 12.4041C13.7676 12.4372 13.8538 12.5006 13.9149 12.5852L15.2709 14.4652C15.4129 14.6616 15.4787 14.903 15.4561 15.1443C15.4335 15.3857 15.324 15.6106 15.1479 15.7772L14.6049 16.2912C14.2573 16.6202 13.8225 16.8425 13.3522 16.9317C12.8819 17.0209 12.3959 16.9731 11.9519 16.7942C10.2539 16.1102 8.64893 14.4832 7.15393 11.8942C5.65493 9.2992 5.04793 7.09219 5.30893 5.27719C5.37649 4.80562 5.57738 4.36318 5.88795 4.00194C6.19852 3.6407 6.60583 3.37572 7.06193 3.23819L7.77893 3.02219C8.01139 2.95234 8.26132 2.96942 8.48211 3.07025C8.7029 3.17108 8.87949 3.34877 8.97893 3.57019" fill="white"/>
</svg>
