<svg width="20" height="20" viewBox="0 0 20 20" fill="none" xmlns="http://www.w3.org/2000/svg">
<path d="M12.812 5.32159L13.7465 4.38708C14.2626 3.87097 15.0994 3.87097 15.6155 4.38708C16.1316 4.9032 16.1316 5.73998 15.6155 6.2561L14.681 7.1906M12.812 5.32159L9.32274 8.81086C8.62589 9.50773 8.27744 9.85613 8.04018 10.2807C7.80292 10.7053 7.5642 11.7079 7.33594 12.6667C8.29466 12.4384 9.29727 12.1997 9.72187 11.9624C10.1465 11.7251 10.4949 11.3767 11.1917 10.6799L14.681 7.1906M12.812 5.32159L14.681 7.1906" stroke="#146AAB" stroke-width="1.25" stroke-linecap="round" stroke-linejoin="round"/>
<path d="M16 10C16 12.8284 16 14.2427 15.1213 15.1213C14.2427 16 12.8284 16 10 16C7.17157 16 5.75736 16 4.87868 15.1213C4 14.2427 4 12.8284 4 10C4 7.17157 4 5.75736 4.87868 4.87868C5.75736 4 7.17157 4 10 4" stroke="#146AAB" stroke-width="1.25" stroke-linecap="round"/>
</svg>
