<svg width="20" height="20" viewBox="0 0 20 20" fill="none" xmlns="http://www.w3.org/2000/svg">
<g clip-path="url(#clip0_54_6842)">
<path d="M0.838058 9.99999C0.838058 14.5717 4.18629 18.3612 8.56429 19.0505V12.6538H6.24089V12.6497H6.23681V9.99999H6.24089V9.99592H8.56429V7.98046C8.56429 6.83095 8.90667 5.93821 9.51147 5.33285C10.1163 4.7275 10.983 4.40998 12.0307 4.40998C12.5324 4.40998 13.0456 4.45475 13.4333 4.49952C13.6271 4.52191 13.7896 4.54429 13.9037 4.56108C13.9607 4.56948 14.0056 4.57647 14.0363 4.58137L14.0713 4.58706L14.0803 4.58856L14.0826 4.58894L14.0832 4.58904L14.0833 4.58906L14.0834 4.58907L14.0868 4.56922V4.59309V6.84895H14.0827V6.85302H12.9268C12.3583 6.85302 11.9861 7.02936 11.7559 7.29553C11.5257 7.56181 11.437 7.9186 11.437 8.28047V9.99592H13.9753V9.99999V10.0041V10.0269L13.5729 12.6503L13.5954 12.6538H13.5688H11.437V19.0505C15.815 18.3612 19.1632 14.5717 19.1632 9.99999C19.1632 4.93962 15.061 0.837397 10.0007 0.837397C4.94029 0.837397 0.838058 4.93962 0.838058 9.99999Z" fill="#1877F2" stroke="#030712" stroke-width="0.00814815"/>
<path d="M13.5682 12.6498L13.9746 10H11.4323V8.2805C11.4323 7.55558 11.7874 6.84898 12.9261 6.84898H14.082V4.59312C14.082 4.59312 13.033 4.41408 12.0301 4.41408C9.93623 4.41408 8.56771 5.68309 8.56771 7.98049V10H6.24023V12.6498H8.56771V19.0553C9.0344 19.1286 9.51273 19.1667 10 19.1667C10.4873 19.1667 10.9656 19.1286 11.4323 19.0553V12.6498H13.5682Z" fill="white"/>
</g>
<defs>
<clipPath id="clip0_54_6842">
<rect width="20" height="20" fill="white"/>
</clipPath>
</defs>
</svg>
