<svg width="32" height="32" viewBox="0 0 32 32" fill="none" xmlns="http://www.w3.org/2000/svg">
<rect y="0.000244141" width="32" height="32" rx="16" fill="#0F172A" fill-opacity="0.08"/>
<path fill-rule="evenodd" clip-rule="evenodd" d="M7.25 14.03C7.25 11.3295 9.61914 9.25024 12.4 9.25024C13.8335 9.25024 15.0948 9.92238 16 10.7921C16.9052 9.92238 18.1665 9.25024 19.6 9.25024C22.3809 9.25024 24.75 11.3295 24.75 14.03C24.75 15.8799 23.9611 17.5067 22.8682 18.8818C21.7771 20.2545 20.35 21.4195 18.9835 22.3662C18.4615 22.7278 17.9335 23.0614 17.4503 23.3075C16.9965 23.5385 16.4747 23.7502 16 23.7502C15.5253 23.7502 15.0035 23.5385 14.5497 23.3075C14.0665 23.0614 13.5385 22.7278 13.0165 22.3662C11.6501 21.4195 10.2229 20.2545 9.13182 18.8818C8.03888 17.5067 7.25 15.8799 7.25 14.03ZM12.4 10.7502C10.3208 10.7502 8.75 12.2793 8.75 14.03C8.75 15.4335 9.34579 16.7402 10.3061 17.9485C11.2683 19.1591 12.5629 20.2272 13.8707 21.1332C14.3656 21.476 14.8317 21.7678 15.2305 21.9708C15.6586 22.1889 15.9067 22.2502 16 22.2502C16.0933 22.2502 16.3414 22.1889 16.7695 21.9708C17.1683 21.7678 17.6344 21.476 18.1293 21.1332C19.4371 20.2272 20.7317 19.1591 21.6939 17.9485C22.6542 16.7402 23.25 15.4335 23.25 14.03C23.25 12.2793 21.6792 10.7502 19.6 10.7502C18.4058 10.7502 17.2908 11.4637 16.5946 12.3692C16.4526 12.5538 16.2329 12.662 16 12.662C15.7671 12.662 15.5474 12.5538 15.4054 12.3692C14.7092 11.4637 13.5942 10.7502 12.4 10.7502Z" fill="white"/>
</svg>
