<svg width="20" height="20" viewBox="0 0 20 20" fill="none" xmlns="http://www.w3.org/2000/svg">
<path fill-rule="evenodd" clip-rule="evenodd" d="M2.90911 2.90911C2.48089 3.33734 2.25581 4.13505 2.25581 5.81395V14.186C2.25581 15.865 2.48089 16.6627 2.90911 17.0909C3.33734 17.5191 4.13505 17.7442 5.81395 17.7442H14.186C15.865 17.7442 16.6627 17.5191 17.0909 17.0909C17.5191 16.6627 17.7442 15.865 17.7442 14.186V9.16279C17.7442 7.48388 17.5191 6.68618 17.0909 6.25795C16.6627 5.82972 15.865 5.60465 14.186 5.60465H11.6744C11.1991 5.60465 10.8135 5.53464 10.4852 5.33622C10.1921 5.15906 10.0013 4.90675 9.86121 4.72156C9.85226 4.70972 9.84352 4.69816 9.83497 4.68691L9.83255 4.68373L9.83256 4.68372L8.57674 3.0093C8.32315 2.67118 8.20513 2.52724 8.04305 2.42988C7.89583 2.34144 7.64332 2.25581 7.06977 2.25581H5.81395C4.13505 2.25581 3.33734 2.48089 2.90911 2.90911ZM2.02112 2.02112C2.84871 1.19353 4.14402 1 5.81395 1H7.06977C7.75203 1 8.26556 1.09856 8.68974 1.35338C9.08235 1.58923 9.33641 1.92859 9.55383 2.21902C9.56308 2.23137 9.57227 2.24364 9.5814 2.25581L10.8361 3.92869C11.0109 4.15866 11.0659 4.2198 11.1348 4.26146C11.1874 4.29326 11.3125 4.34884 11.6744 4.34884H14.186C15.856 4.34884 17.1513 4.54237 17.9789 5.36996C18.8065 6.19754 19 7.49286 19 9.16279V14.186C19 15.856 18.8065 17.1513 17.9789 17.9789C17.1513 18.8065 15.856 19 14.186 19H5.81395C4.14402 19 2.84871 18.8065 2.02112 17.9789C1.19353 17.1513 1 15.856 1 14.186V5.81395C1 4.14402 1.19353 2.84871 2.02112 2.02112ZM10.0502 8.95349C10.397 8.95349 10.6781 9.23461 10.6781 9.5814V11.0465H12.093C12.4398 11.0465 12.7209 11.3276 12.7209 11.6744C12.7209 12.0212 12.4398 12.3023 12.093 12.3023H10.6781V13.7674C10.6781 14.1142 10.397 14.3953 10.0502 14.3953C9.70345 14.3953 9.42233 14.1142 9.42233 13.7674V12.3023H7.90698C7.56019 12.3023 7.27907 12.0212 7.27907 11.6744C7.27907 11.3276 7.56019 11.0465 7.90698 11.0465H9.42233V9.5814C9.42233 9.23461 9.70345 8.95349 10.0502 8.95349Z" fill="#2C2A2A"/>
</svg>
