<svg width="20" height="20" viewBox="0 0 20 20" fill="none" xmlns="http://www.w3.org/2000/svg">
<path fill-rule="evenodd" clip-rule="evenodd" d="M2.54437 2.54437C3.6616 1.42714 5.33342 1 7.48837 1H10.8372C11.184 1 11.4651 1.28112 11.4651 1.62791C11.4651 1.97469 11.184 2.25581 10.8372 2.25581H7.48837C5.45728 2.25581 4.19886 2.66588 3.43237 3.43237C2.66588 4.19886 2.25581 5.45728 2.25581 7.48837V12.5116C2.25581 13.4437 2.34217 14.2131 2.50971 14.8469L5.96627 12.5261C6.85629 11.929 8.12196 11.9893 8.9357 12.6884L8.94102 12.693L9.21429 12.9331C9.6323 13.2899 10.3377 13.2892 10.7546 12.9311L14.2374 9.94229C14.2373 9.94235 14.2374 9.94222 14.2374 9.94229C15.1257 9.17943 16.5283 9.17929 17.4165 9.94227C17.4165 9.94226 17.4166 9.94228 17.4165 9.94227L17.7442 10.2237V8.32558C17.7442 7.97879 18.0253 7.69767 18.3721 7.69767C18.7189 7.69767 19 7.97879 19 8.32558V11.5873C19 11.5897 19 11.5922 19 11.5947V12.5116C19 14.6666 18.5728 16.3384 17.4556 17.4556C16.3384 18.5728 14.6666 19 12.5116 19H7.48837C5.33342 19 3.6616 18.5728 2.54437 17.4556C1.42714 16.3384 1 14.6666 1 12.5116V7.48837C1 5.33342 1.42714 3.6616 2.54437 2.54437ZM17.7442 11.8791L16.5983 10.8949C16.1806 10.5361 15.4734 10.5361 15.0556 10.8949L11.5729 13.8837C11.5728 13.8838 11.5729 13.8837 11.5729 13.8837C10.6845 14.6466 9.28191 14.6467 8.39365 13.8837L8.38827 13.8791L8.11497 13.6389C7.73959 13.3185 7.09814 13.2791 6.66628 13.5687L3.00381 16.0277C3.13117 16.2303 3.27418 16.4094 3.43237 16.5676C4.19886 17.3341 5.45728 17.7442 7.48837 17.7442H12.5116C14.5427 17.7442 15.8011 17.3341 16.5676 16.5676C17.3341 15.8011 17.7442 14.5427 17.7442 12.5116V11.8791ZM15.4419 1.2093C15.7886 1.2093 16.0698 1.49043 16.0698 1.83721V3.51163H17.7442C18.091 3.51163 18.3721 3.79275 18.3721 4.13953C18.3721 4.48632 18.091 4.76744 17.7442 4.76744H16.0698V6.44186C16.0698 6.78864 15.7886 7.06976 15.4419 7.06976C15.0951 7.06976 14.8139 6.78864 14.8139 6.44186V4.76744H13.1395C12.7927 4.76744 12.5116 4.48632 12.5116 4.13953C12.5116 3.79275 12.7927 3.51163 13.1395 3.51163H14.8139V1.83721C14.8139 1.49043 15.0951 1.2093 15.4419 1.2093ZM7.48837 5.60465C6.9104 5.60465 6.44186 6.07319 6.44186 6.65116C6.44186 7.22913 6.9104 7.69767 7.48837 7.69767C8.06634 7.69767 8.53488 7.22913 8.53488 6.65116C8.53488 6.07319 8.06634 5.60465 7.48837 5.60465ZM5.18604 6.65116C5.18604 5.37962 6.21683 4.34883 7.48837 4.34883C8.75991 4.34883 9.79069 5.37962 9.79069 6.65116C9.79069 7.9227 8.75991 8.95348 7.48837 8.95348C6.21683 8.95348 5.18604 7.9227 5.18604 6.65116Z" fill="#2C2A2A"/>
</svg>
