<svg width="20" height="20" viewBox="0 0 20 20" fill="none" xmlns="http://www.w3.org/2000/svg">
<path d="M14.9333 11.8458H10.0333V8.36665H18.6054C18.7103 8.95633 18.7667 9.57021 18.7667 10.2083C18.7667 12.9867 17.7734 15.3239 16.0536 16.9125H13.1375V14.6636C14.1075 14.0087 14.753 13.0342 14.9661 11.8852L14.9734 11.8458H14.9333Z" fill="#4285F4" stroke="#030712" stroke-width="0.0666667"/>
<path d="M10.0003 19.1667C12.4753 19.1667 14.5503 18.3459 16.0669 16.9459L13.1044 14.6459C12.2836 15.1959 11.2336 15.5209 10.0003 15.5209C7.61276 15.5209 5.59193 13.9084 4.87109 11.7417H1.80859V14.1167C3.31693 17.1125 6.41693 19.1667 10.0003 19.1667Z" fill="#34A853"/>
<path d="M4.87148 11.7417C4.68815 11.1917 4.58399 10.6042 4.58399 10C4.58399 9.39586 4.68815 8.80836 4.87148 8.25836V5.88336H1.80899C1.16732 7.16074 0.833419 8.57054 0.833985 10C0.833985 11.4792 1.18815 12.8792 1.80899 14.1167L4.87148 11.7417Z" fill="#FBBC05"/>
<path d="M10.0003 4.47921C11.3461 4.47921 12.5544 4.94171 13.5044 5.85004L16.1336 3.22087C14.5461 1.74171 12.4711 0.833374 10.0003 0.833374C6.41693 0.833374 3.31693 2.88754 1.80859 5.88337L4.87109 8.25837C5.59193 6.09171 7.61276 4.47921 10.0003 4.47921Z" fill="#EA4335"/>
</svg>
