<svg width="32" height="32" viewBox="0 0 32 32" fill="none" xmlns="http://www.w3.org/2000/svg">
<rect y="0.000244141" width="32" height="32" rx="16" fill="#EDEFF2"/>
<g clip-path="url(#clip0_1_42129)">
<path d="M15.1738 23.5H14.0055C11.018 23.5 9.52464 23.5 8.5963 22.5542C7.66797 21.6084 7.66797 20.0859 7.66797 17.0417C7.66797 13.9975 7.66797 12.475 8.5963 11.5292C9.52464 10.5834 11.018 10.5834 14.0055 10.5834H17.1746C20.1621 10.5834 21.6563 10.5834 22.5846 11.5292C23.2988 12.2567 23.463 13.3259 23.5013 15.1667" stroke="black" stroke-width="1.5" stroke-linecap="round" stroke-linejoin="round"/>
<path d="M22.6834 22.6859L24.3359 24.3334M19.3359 10.5834L19.2526 10.3251C18.8401 9.04175 18.6343 8.40008 18.1434 8.03341C17.6518 7.66675 17.0001 7.66675 15.6943 7.66675H15.4751C14.1709 7.66675 13.5184 7.66675 13.0276 8.03341C12.5359 8.40008 12.3301 9.04175 11.9176 10.3251L11.8359 10.5834M23.5468 20.6051C23.5533 20.215 23.4822 19.8275 23.3374 19.4652C23.1927 19.1029 22.9773 18.773 22.7037 18.4949C22.4302 18.2167 22.104 17.9957 21.7442 17.8449C21.3844 17.6941 20.9982 17.6164 20.608 17.6164C20.2179 17.6164 19.8316 17.6941 19.4718 17.8449C19.112 17.9957 18.7858 18.2167 18.5123 18.4949C18.2388 18.773 18.0233 19.1029 17.8786 19.4652C17.7339 19.8275 17.6627 20.215 17.6693 20.6051C17.6823 21.3759 17.9976 22.1108 18.5473 22.6513C19.097 23.1919 19.8371 23.4948 20.608 23.4948C21.379 23.4948 22.119 23.1919 22.6688 22.6513C23.2185 22.1108 23.5338 21.3759 23.5468 20.6051Z" stroke="black" stroke-width="1.5" stroke-linecap="round" stroke-linejoin="round"/>
</g>
<defs>
<clipPath id="clip0_1_42129">
<rect width="20" height="20" fill="white" transform="translate(6 6.00024)"/>
</clipPath>
</defs>
</svg>
