<svg width="14" height="14" viewBox="0 0 14 14" fill="none" xmlns="http://www.w3.org/2000/svg">
<path d="M1.75 5.96981L2.18575 5.93248C2.17571 5.82043 2.12289 5.71655 2.03826 5.64243C1.95363 5.5683 1.84371 5.52963 1.73131 5.53443C1.61891 5.53924 1.51269 5.58716 1.4347 5.66823C1.3567 5.74931 1.31294 5.85731 1.3125 5.96981H1.75ZM11.8043 7.03323L11.3925 9.41323L12.2552 9.56256L12.6665 7.18256L11.8043 7.03323ZM7.72625 12.3958H5.01433V13.2708H7.72625V12.3958ZM4.48292 11.9076L4.00925 6.42831L3.13717 6.50356L3.61142 11.9828L4.48292 11.9076ZM11.3925 9.41323C11.0968 11.1224 9.55558 12.3958 7.72625 12.3958V13.2708C9.95808 13.2708 11.8831 11.7139 12.2552 9.56256L11.3925 9.41323ZM7.73208 2.97498L7.34533 5.33456L8.20867 5.47573L8.59542 3.11673L7.73208 2.97498ZM4.193 5.97681L5.03242 5.25348L4.46075 4.59081L3.6225 5.31415L4.193 5.97681ZM6.559 2.90031L6.83667 1.83048L5.98967 1.61115L5.712 2.6804L6.559 2.90031ZM7.2555 1.62048L7.34008 1.6479L7.60783 0.814896L7.52325 0.78748L7.2555 1.62048ZM6.13842 3.97598C6.32053 3.63526 6.4617 3.2742 6.559 2.90031L5.712 2.6804C5.63162 2.9874 5.51573 3.28398 5.36667 3.56415L6.13842 3.97598ZM7.34008 1.6479C7.42319 1.67336 7.49857 1.71929 7.55931 1.78146C7.62006 1.84363 7.66422 1.92006 7.68775 2.00373L8.53475 1.7844C8.47472 1.55765 8.35823 1.34982 8.19614 1.18028C8.03405 1.01075 7.83165 0.88504 7.60783 0.814896L7.34008 1.6479ZM6.83667 1.83048C6.84847 1.78855 6.86917 1.74965 6.89736 1.71643C6.92554 1.68321 6.96055 1.65646 7 1.63798L6.62025 0.849896C6.30992 0.99923 6.07658 1.27573 5.98967 1.61115L6.83667 1.83048ZM7 1.63798C7.0799 1.60008 7.17118 1.59383 7.2555 1.62048L7.52325 0.78748C7.22532 0.692239 6.90224 0.714571 6.62025 0.849896L7 1.63798ZM8.2565 6.40731H11.2782V5.53231H8.2565V6.40731ZM2.75275 12.4868L2.18575 5.93248L1.31425 6.00773L1.88008 12.5621L2.75275 12.4868ZM2.1875 12.5492V5.96981H1.3125V12.5492H2.1875ZM1.88008 12.5621C1.8783 12.5409 1.88154 12.5195 1.88844 12.4994C1.89535 12.4793 1.90637 12.4608 1.9208 12.4452C1.93523 12.4296 1.95275 12.4171 1.97225 12.4086C1.99175 12.4001 2.01281 12.3957 2.03408 12.3958V13.2708C2.45758 13.2708 2.78892 12.908 2.75275 12.4868L1.88008 12.5621ZM8.59542 3.11673C8.66875 2.67327 8.64808 2.21935 8.53475 1.7844L7.68775 2.00431C7.77048 2.32117 7.78559 2.6519 7.73208 2.97498L8.59542 3.11673ZM5.01433 12.3958C4.88076 12.3956 4.75211 12.3453 4.65375 12.255C4.55538 12.1646 4.49444 12.0406 4.48292 11.9076L3.61142 11.9828C3.64177 12.3341 3.80268 12.6612 4.06239 12.8996C4.32211 13.1381 4.66176 13.2705 5.01433 13.2708V12.3958ZM5.03242 5.25348C5.42908 4.91165 5.85608 4.50506 6.139 3.97598L5.36667 3.56415C5.16483 3.94273 4.84342 4.26181 4.46075 4.59081L5.03242 5.25348ZM12.6665 7.18256C12.7016 6.98014 12.6921 6.77248 12.6385 6.57414C12.5849 6.3758 12.4886 6.19157 12.3564 6.03436C12.2241 5.87715 12.0591 5.75075 11.8728 5.66403C11.6866 5.57731 11.4836 5.53235 11.2782 5.53231V6.40731C11.6089 6.40731 11.8615 6.70598 11.8043 7.03323L12.6665 7.18256ZM2.03408 12.3958C2.11925 12.3958 2.1875 12.4646 2.1875 12.5492H1.3125C1.3125 12.9471 1.63508 13.2708 2.03408 13.2708V12.3958ZM7.34533 5.33456C7.32359 5.46673 7.33085 5.60205 7.36663 5.73114C7.40241 5.86022 7.46585 5.97997 7.55253 6.08209C7.63922 6.1842 7.74709 6.26623 7.86865 6.32249C7.99021 6.37876 8.12255 6.40731 8.2565 6.40731V5.53231C8.24938 5.53234 8.24235 5.53139 8.23589 5.52839C8.22943 5.52539 8.22372 5.52101 8.21915 5.51555C8.21459 5.51009 8.21128 5.50369 8.20947 5.49681C8.20765 5.48993 8.20738 5.48273 8.20867 5.47573L7.34533 5.33456ZM4.00925 6.42831C4.00213 6.34385 4.01455 6.25889 4.04659 6.18042C4.07863 6.10194 4.1288 6.03217 4.193 5.97681L3.62133 5.31356C3.45225 5.45948 3.3202 5.64342 3.23603 5.85029C3.15187 6.05716 3.11798 6.28105 3.13717 6.50356L4.00925 6.42831Z" fill="#9CA3AF"/>
</svg>
