<svg width="32" height="32" viewBox="0 0 32 32" fill="none" xmlns="http://www.w3.org/2000/svg">
<rect y="0.000244141" width="32" height="32" rx="16" fill="#EDEFF2"/>
<path opacity="0.2" d="M24.125 14.7502H17.25V9.75024C17.25 9.58448 17.3158 9.42551 17.4331 9.3083C17.5503 9.19109 17.7092 9.12524 17.875 9.12524H18.5C19.9918 9.12524 21.4226 9.71788 22.4775 10.7728C23.5324 11.8277 24.125 13.2584 24.125 14.7502Z" fill="black"/>
<path d="M18.5 8.50024H17.875C17.5435 8.50024 17.2255 8.63194 16.9911 8.86636C16.7567 9.10078 16.625 9.41872 16.625 9.75024V14.1252H10.3125C10.1675 13.4199 9.78367 12.7861 9.22581 12.3307C8.66795 11.8753 7.97014 11.6261 7.25 11.6252C7.08424 11.6252 6.92527 11.6911 6.80806 11.8083C6.69085 11.9255 6.625 12.0845 6.625 12.2502C6.625 12.416 6.69085 12.575 6.80806 12.6922C6.92527 12.8094 7.08424 12.8752 7.25 12.8752C7.74728 12.8752 8.22419 13.0728 8.57583 13.4244C8.92746 13.776 9.125 14.253 9.125 14.7502C9.12686 16.4073 9.78594 17.9959 10.9576 19.1676C12.1293 20.3393 13.718 20.9984 15.375 21.0002H18.5C20.1576 21.0002 21.7473 20.3418 22.9194 19.1697C24.0915 17.9976 24.75 16.4078 24.75 14.7502C24.75 13.0926 24.0915 11.5029 22.9194 10.3308C21.7473 9.15872 20.1576 8.50024 18.5 8.50024ZM23.4594 14.1252H19.032L22.3023 11.5088C22.9357 12.249 23.338 13.1587 23.4594 14.1252ZM18.5 9.75024C19.5262 9.74933 20.5275 10.0662 21.3664 10.6573L17.875 13.4495V9.75024H18.5ZM18.5 19.7502H15.375C14.1576 19.7488 12.9824 19.3038 12.0693 18.4985C11.1562 17.6933 10.5677 16.5829 10.4141 15.3752H23.4609C23.3073 16.5829 22.7188 17.6933 21.8057 18.4985C20.8926 19.3038 19.7174 19.7488 18.5 19.7502ZM14.125 23.5002C14.125 23.7475 14.0517 23.9891 13.9143 24.1947C13.777 24.4003 13.5818 24.5605 13.3534 24.6551C13.1249 24.7497 12.8736 24.7745 12.6311 24.7262C12.3887 24.678 12.1659 24.5589 11.9911 24.3841C11.8163 24.2093 11.6972 23.9866 11.649 23.7441C11.6008 23.5016 11.6255 23.2503 11.7202 23.0219C11.8148 22.7935 11.975 22.5983 12.1805 22.4609C12.3861 22.3236 12.6278 22.2502 12.875 22.2502C13.2065 22.2502 13.5245 22.3819 13.7589 22.6164C13.9933 22.8508 14.125 23.1687 14.125 23.5002ZM22.25 23.5002C22.25 23.7475 22.1767 23.9891 22.0393 24.1947C21.902 24.4003 21.7068 24.5605 21.4784 24.6551C21.2499 24.7497 20.9986 24.7745 20.7561 24.7262C20.5137 24.678 20.2909 24.5589 20.1161 24.3841C19.9413 24.2093 19.8222 23.9866 19.774 23.7441C19.7258 23.5016 19.7505 23.2503 19.8451 23.0219C19.9398 22.7935 20.1 22.5983 20.3055 22.4609C20.5111 22.3236 20.7528 22.2502 21 22.2502C21.3315 22.2502 21.6495 22.3819 21.8839 22.6164C22.1183 22.8508 22.25 23.1687 22.25 23.5002Z" fill="black"/>
</svg>
