<svg width="16" height="16" viewBox="0 0 16 16" fill="none" xmlns="http://www.w3.org/2000/svg">
<path d="M9.07847 14.2448C8.7894 14.5155 8.40293 14.6668 8.00073 14.6668C7.59853 14.6668 7.21213 14.5155 6.923 14.2448C4.27535 11.7508 0.727174 8.96476 2.45751 4.91994C3.39309 2.73294 5.63889 1.3335 8.00073 1.3335C10.3626 1.3335 12.6084 2.73294 13.544 4.91994C15.2721 8.9597 11.7327 11.7594 9.07847 14.2448Z" stroke="#9CA3AF" stroke-width="1.25"/>
<path d="M10.3327 7.33358C10.3327 8.62224 9.28802 9.66691 7.99935 9.66691C6.71068 9.66691 5.66602 8.62224 5.66602 7.33358C5.66602 6.04491 6.71068 5.00024 7.99935 5.00024C9.28802 5.00024 10.3327 6.04491 10.3327 7.33358Z" stroke="#9CA3AF" stroke-width="1.25"/>
</svg>
