<svg width="32" height="32" viewBox="0 0 32 32" fill="none" xmlns="http://www.w3.org/2000/svg">
<rect y="0.00012207" width="32" height="32" rx="16" fill="#EDEFF2"/>
<path fill-rule="evenodd" clip-rule="evenodd" d="M18.3828 16.0788C18.5374 16.0267 18.7007 15.9996 18.8653 15.9996H19.3287C19.3429 15.9996 19.357 15.9967 19.3701 15.9911C19.3832 15.9854 19.395 15.9772 19.4048 15.9668C19.4145 15.9564 19.4221 15.9441 19.4269 15.9307C19.4317 15.9173 19.4337 15.903 19.4328 15.8888L19.2453 13.1729C19.2424 13.1205 19.219 13.0712 19.1801 13.0359C19.1412 13.0006 19.0899 12.982 19.0374 12.9842C17.2599 13.0742 15.8316 14.395 15.722 16.2067L15.7074 16.4479C15.7055 16.4804 15.7112 16.5129 15.724 16.5428C15.7369 16.5727 15.7566 16.5992 15.7816 16.6201C15.8065 16.641 15.836 16.6557 15.8677 16.6632C15.8994 16.6706 15.9324 16.6705 15.9641 16.6629L18.3828 16.0788ZM18.4612 13.915C17.5945 14.1533 16.9237 14.7896 16.6649 15.6363L18.1557 15.2763C18.2843 15.2354 18.4155 15.206 18.5491 15.1879L18.4612 13.915Z" fill="black"/>
<path fill-rule="evenodd" clip-rule="evenodd" d="M10.3765 8.50012C10.1265 8.50004 9.88071 8.56423 9.66267 8.68652C9.44462 8.80882 9.26168 8.98511 9.1314 9.19848C9.00112 9.41185 8.92788 9.65513 8.91871 9.90496C8.90954 10.1548 8.96474 10.4028 9.07903 10.6251L8.59569 16.1568L8.59403 16.1835L8.55986 17.1501C8.54187 17.6593 8.71591 18.1567 9.04747 18.5436C9.37904 18.9305 9.8439 19.1787 10.3499 19.2389L10.4249 19.248C10.8197 19.2948 11.2196 19.2249 11.5751 19.0468C11.9305 18.8686 12.226 18.5902 12.4249 18.246L13.3394 16.6601C13.5457 16.303 13.2236 15.873 12.8228 15.9705L12.1224 16.1405L11.0607 16.0718L10.6165 16.0189L11.3215 11.343C12.0778 11.5772 12.8244 11.8255 13.4686 12.1772C14.0915 12.5176 14.5886 12.9393 14.8924 13.5097C14.3403 14.2804 14.0196 15.1927 13.9682 16.1393L13.8386 18.4768C13.8354 18.5334 13.8438 18.59 13.8633 18.6432C13.8828 18.6964 13.9129 18.7451 13.9518 18.7863C13.9907 18.8275 14.0376 18.8603 14.0897 18.8827C14.1417 18.9052 14.1978 18.9168 14.2544 18.9168H23.2753C23.3041 18.9168 23.3325 18.9108 23.3589 18.8992C23.3853 18.8876 23.4089 18.8707 23.4284 18.8496C23.4479 18.8284 23.4628 18.8034 23.4722 18.7762C23.4815 18.7489 23.4851 18.7201 23.4828 18.6914L23.2369 15.7397C23.2239 15.5835 23.1526 15.4379 23.0372 15.3318C22.9218 15.2257 22.7708 15.1668 22.614 15.1668H21.0199C21.0148 15.1668 21.0099 15.165 21.0061 15.1618C21.0022 15.1585 20.9997 15.1539 20.999 15.1489L20.5807 12.1355C20.553 11.9363 20.4542 11.7538 20.3025 11.6217C20.1508 11.4896 19.9564 11.4168 19.7553 11.4168H18.9607C18.2276 11.4165 17.5034 11.5774 16.8394 11.888C15.6253 10.0514 13.5011 9.53387 11.569 9.11887C11.4344 8.92769 11.2558 8.77168 11.0483 8.664C10.8407 8.55631 10.6103 8.50011 10.3765 8.50012ZM9.75153 9.95846C9.75153 9.7927 9.81738 9.63372 9.93459 9.51651C10.0518 9.3993 10.2108 9.33346 10.3765 9.33346C10.5423 9.33346 10.7013 9.3993 10.8185 9.51651C10.9357 9.63372 11.0015 9.7927 11.0015 9.95846C11.0015 10.1242 10.9357 10.2832 10.8185 10.4004C10.7013 10.5176 10.5423 10.5835 10.3765 10.5835C10.2108 10.5835 10.0518 10.5176 9.93459 10.4004C9.81738 10.2832 9.75153 10.1242 9.75153 9.95846ZM10.5753 11.4035C10.2951 11.4411 10.0101 11.3974 9.75403 11.2776L9.32278 16.2097L9.28861 17.176C9.27713 17.5024 9.38873 17.8211 9.60127 18.0691C9.81382 18.3171 10.1118 18.4761 10.4361 18.5147L10.5111 18.5239C10.7642 18.5538 11.0205 18.5089 11.2483 18.3948C11.4762 18.2807 11.6656 18.1024 11.7932 17.8818L12.404 16.8226L12.2557 16.8585C12.2096 16.8696 12.1626 16.8737 12.1149 16.871L10.994 16.798L10.2636 16.711C10.2012 16.7036 10.141 16.6837 10.0864 16.6526C10.0319 16.6214 9.98415 16.5797 9.94606 16.5297C9.90797 16.4798 9.88031 16.4227 9.86471 16.3618C9.84912 16.301 9.84591 16.2376 9.85528 16.1755L10.5753 11.4035ZM13.8682 11.446C13.1878 11.0743 12.4178 10.8122 11.6932 10.586C11.774 10.4164 11.8236 10.2289 11.8332 10.031C13.6057 10.4318 15.1815 10.9301 16.1157 12.3047C15.8838 12.4652 15.666 12.645 15.4644 12.8422C15.0615 12.2301 14.4911 11.7864 13.8682 11.4464M14.8003 16.186C14.8593 15.1225 15.3233 14.1219 16.0971 13.3899C16.8709 12.658 17.8956 12.2501 18.9607 12.2501H19.7553L20.1736 15.2635C20.202 15.4676 20.3032 15.6547 20.4587 15.7901C20.6141 15.9255 20.8133 16.0001 21.0194 16.0001H22.4224L22.5961 18.0835H14.6949L14.8003 16.186Z" fill="black"/>
<path d="M15.793 22.2501C15.9587 22.2501 16.1177 22.1843 16.2349 22.0671C16.3521 21.9499 16.418 21.7909 16.418 21.6251C16.418 21.4594 16.3521 21.3004 16.2349 21.1832C16.1177 21.066 15.9587 21.0001 15.793 21.0001C15.6272 21.0001 15.4682 21.066 15.351 21.1832C15.2338 21.3004 15.168 21.4594 15.168 21.6251C15.168 21.7909 15.2338 21.9499 15.351 22.0671C15.4682 22.1843 15.6272 22.2501 15.793 22.2501ZM18.918 21.6251C18.918 21.7909 18.8521 21.9499 18.7349 22.0671C18.6177 22.1843 18.4587 22.2501 18.293 22.2501C18.1272 22.2501 17.9682 22.1843 17.851 22.0671C17.7338 21.9499 17.668 21.7909 17.668 21.6251C17.668 21.4594 17.7338 21.3004 17.851 21.1832C17.9682 21.066 18.1272 21.0001 18.293 21.0001C18.4587 21.0001 18.6177 21.066 18.7349 21.1832C18.8521 21.3004 18.918 21.4594 18.918 21.6251ZM20.793 22.2501C20.9587 22.2501 21.1177 22.1843 21.2349 22.0671C21.3521 21.9499 21.418 21.7909 21.418 21.6251C21.418 21.4594 21.3521 21.3004 21.2349 21.1832C21.1177 21.066 20.9587 21.0001 20.793 21.0001C20.6272 21.0001 20.4682 21.066 20.351 21.1832C20.2338 21.3004 20.168 21.4594 20.168 21.6251C20.168 21.7909 20.2338 21.9499 20.351 22.0671C20.4682 22.1843 20.6272 22.2501 20.793 22.2501Z" fill="black"/>
<path fill-rule="evenodd" clip-rule="evenodd" d="M14.9609 19.7501C14.7147 19.7501 14.4709 19.7986 14.2434 19.8928C14.0159 19.9871 13.8092 20.1252 13.6351 20.2993C13.461 20.4734 13.3229 20.6801 13.2287 20.9076C13.1344 21.1351 13.0859 21.3789 13.0859 21.6251C13.0859 21.8714 13.1344 22.1152 13.2287 22.3427C13.3229 22.5701 13.461 22.7768 13.6351 22.9509C13.8092 23.1251 14.0159 23.2632 14.2434 23.3574C14.4709 23.4516 14.7147 23.5001 14.9609 23.5001H21.6276C21.8738 23.5001 22.1177 23.4516 22.3451 23.3574C22.5726 23.2632 22.7793 23.1251 22.9534 22.9509C23.1275 22.7768 23.2657 22.5701 23.3599 22.3427C23.4541 22.1152 23.5026 21.8714 23.5026 21.6251C23.5026 21.3789 23.4541 21.1351 23.3599 20.9076C23.2657 20.6801 23.1275 20.4734 22.9534 20.2993C22.7793 20.1252 22.5726 19.9871 22.3451 19.8928C22.1177 19.7986 21.8738 19.7501 21.6276 19.7501H14.9609ZM21.6276 20.5835H14.9609C14.6847 20.5835 14.4197 20.6932 14.2244 20.8886C14.029 21.0839 13.9193 21.3489 13.9193 21.6251C13.9193 21.9014 14.029 22.1663 14.2244 22.3617C14.4197 22.557 14.6847 22.6668 14.9609 22.6668H21.6276C21.9039 22.6668 22.1688 22.557 22.3642 22.3617C22.5595 22.1663 22.6693 21.9014 22.6693 21.6251C22.6693 21.3489 22.5595 21.0839 22.3642 20.8886C22.1688 20.6932 21.9039 20.5835 21.6276 20.5835Z" fill="black"/>
</svg>
