<svg width="32" height="32" viewBox="0 0 32 32" fill="none" xmlns="http://www.w3.org/2000/svg">
<rect width="32" height="32" rx="16" fill="white"/>
<path d="M15.9974 14.3337C17.8383 14.3337 19.3307 12.8413 19.3307 11.0003C19.3307 9.15938 17.8383 7.66699 15.9974 7.66699C14.1564 7.66699 12.6641 9.15938 12.6641 11.0003C12.6641 12.8413 14.1564 14.3337 15.9974 14.3337Z" stroke="black" stroke-width="1.5"/>
<path d="M22.6637 21.0003C22.6648 20.8637 22.6654 20.7248 22.6654 20.5837C22.6654 18.5128 19.6804 16.8337 15.9987 16.8337C12.317 16.8337 9.33203 18.5128 9.33203 20.5837C9.33203 22.6545 9.33203 24.3337 15.9987 24.3337C17.8579 24.3337 19.1987 24.2028 20.1654 23.9695" stroke="black" stroke-width="1.5" stroke-linecap="round"/>
</svg>
