<svg width="32" height="32" viewBox="0 0 32 32" fill="none" xmlns="http://www.w3.org/2000/svg">
<rect width="32" height="32" rx="16" fill="#EDEFF2"/>
<path d="M21.8339 18.3082V12.4749L17.2506 9.26907L12.6672 12.4741V14.7174H11.8339V12.0749L17.2506 8.2124L22.6672 12.0741V18.3074L21.8339 18.3082ZM17.7472 13.0349H18.4206V12.3616H17.7472V13.0349ZM16.0806 13.0349H16.7539V12.3616H16.0806V13.0349ZM17.7472 14.7016H18.4206V14.0282H17.7472V14.7016ZM16.0806 14.7016H16.7539V14.0282H16.0806V14.7016ZM11.3372 21.5449L17.6414 23.3841L22.6322 21.8424C22.6156 21.5896 22.54 21.4074 22.4056 21.2957C22.27 21.1841 22.117 21.1282 21.9464 21.1282H17.9922C17.64 21.1282 17.3206 21.1143 17.0339 21.0866C16.7472 21.0588 16.4542 20.9927 16.1547 20.8882L14.3297 20.2899L14.6114 19.4666L16.2989 20.0766C16.5667 20.1782 16.8711 20.2393 17.2122 20.2599C17.5528 20.2799 18.0195 20.2916 18.6122 20.2949C18.6122 20.0349 18.5645 19.8249 18.4689 19.6649C18.3734 19.5049 18.2364 19.3932 18.0581 19.3299L13.2631 17.5699C13.2314 17.5593 13.202 17.5516 13.1747 17.5466C13.1475 17.5416 13.1184 17.5388 13.0872 17.5382H11.3372V21.5449ZM8.00391 23.4999V16.7049H13.0672C13.145 16.7049 13.225 16.7138 13.3072 16.7316C13.3895 16.7493 13.4659 16.7699 13.5364 16.7932L18.3522 18.5574C18.6506 18.6707 18.9072 18.8743 19.1222 19.1682C19.3378 19.4621 19.4456 19.8377 19.4456 20.2949H21.9456C22.4478 20.2949 22.8322 20.4518 23.0989 20.7657C23.3661 21.0802 23.4997 21.4788 23.4997 21.9616V22.4741L17.6831 24.2691L11.3364 22.4191V23.4999H8.00391ZM8.83724 22.6666H10.5039V17.5382H8.83724V22.6666Z" fill="black"/>
</svg>
