<svg width="32" height="32" viewBox="0 0 32 32" fill="none" xmlns="http://www.w3.org/2000/svg">
<rect y="0.00012207" width="32" height="32" rx="16" fill="#EDEFF2"/>
<path d="M10.168 10.1668C10.168 9.72476 10.3436 9.30084 10.6561 8.98828C10.9687 8.67572 11.3926 8.50012 11.8346 8.50012H20.168C20.61 8.50012 21.0339 8.67572 21.3465 8.98828C21.659 9.30084 21.8346 9.72476 21.8346 10.1668V11.8335C21.8346 12.2755 21.659 12.6994 21.3465 13.012C21.0339 13.3245 20.61 13.5001 20.168 13.5001H11.8346C11.3926 13.5001 10.9687 13.3245 10.6561 13.012C10.3436 12.6994 10.168 12.2755 10.168 11.8335V10.1668Z" stroke="black" stroke-width="2" stroke-linecap="round" stroke-linejoin="round"/>
<path d="M21.8359 11.0001H22.6693C23.1113 11.0001 23.5352 11.1757 23.8478 11.4883C24.1603 11.8008 24.3359 12.2248 24.3359 12.6668C24.3359 13.7719 23.897 14.8317 23.1155 15.6131C22.3341 16.3945 21.2743 16.8335 20.1693 16.8335H16.0026V18.5001M14.3359 19.3335C14.3359 19.1124 14.4237 18.9005 14.58 18.7442C14.7363 18.5879 14.9483 18.5001 15.1693 18.5001H16.8359C17.057 18.5001 17.2689 18.5879 17.4252 18.7442C17.5815 18.9005 17.6693 19.1124 17.6693 19.3335V22.6668C17.6693 22.8878 17.5815 23.0998 17.4252 23.256C17.2689 23.4123 17.057 23.5001 16.8359 23.5001H15.1693C14.9483 23.5001 14.7363 23.4123 14.58 23.256C14.4237 23.0998 14.3359 22.8878 14.3359 22.6668V19.3335Z" stroke="black" stroke-width="2" stroke-linecap="round" stroke-linejoin="round"/>
</svg>
