<svg width="36" height="36" viewBox="0 0 36 36" fill="none" xmlns="http://www.w3.org/2000/svg">
<path d="M25.5 13.418C25.5 14.7987 24.3807 15.918 23 15.918C21.6192 15.918 20.5 14.7987 20.5 13.418C20.5 12.0373 21.6192 10.918 23 10.918C24.3807 10.918 25.5 12.0373 25.5 13.418Z" stroke="white" stroke-width="1.5"/>
<path d="M15.5 18C15.5 19.3807 14.3807 20.5 13 20.5C11.6193 20.5 10.5 19.3807 10.5 18C10.5 16.6192 11.6193 15.5 13 15.5C14.3807 15.5 15.5 16.6192 15.5 18Z" stroke="white" stroke-width="1.5"/>
<path d="M25.5 22.582C25.5 23.9628 24.3807 25.082 23 25.082C21.6192 25.082 20.5 23.9628 20.5 22.582C20.5 21.2013 21.6192 20.082 23 20.082C24.3807 20.082 25.5 21.2013 25.5 22.582Z" stroke="white" stroke-width="1.5"/>
<path d="M15.2734 16.9566L20.6901 14.457M15.2734 19.0403L20.6901 21.5399" stroke="white" stroke-width="1.5"/>
</svg>
