<svg width="40" height="40" viewBox="0 0 40 40" fill="none" xmlns="http://www.w3.org/2000/svg">
<path d="M29.9196 18.126C29.9388 17.9959 29.9322 17.8633 29.9002 17.7358C29.8681 17.6082 29.8112 17.4883 29.7327 17.3827C29.6542 17.2772 29.5557 17.1882 29.4428 17.1208C29.3298 17.0534 29.2047 17.009 29.0746 16.99L23.4236 16.164L20.8976 11.017C20.8064 10.8597 20.6754 10.7291 20.5179 10.6384C20.3603 10.5476 20.1816 10.4999 19.9998 10.5C19.8179 10.5001 19.6393 10.548 19.4818 10.6389C19.3244 10.7299 19.1936 10.8606 19.1026 11.018L16.5776 16.164L10.9266 16.99C10.7421 17.0168 10.5688 17.0946 10.4262 17.2147C10.2836 17.3347 10.1775 17.4922 10.1196 17.6694C10.0618 17.8466 10.0547 18.0365 10.099 18.2175C10.1434 18.3985 10.2374 18.5636 10.3706 18.694L14.4636 22.707L13.4976 28.371C13.467 28.5549 13.4884 28.7436 13.5592 28.9159C13.63 29.0883 13.7475 29.2375 13.8984 29.3468C14.0493 29.4561 14.2278 29.5211 14.4136 29.5346C14.5995 29.5481 14.7854 29.5094 14.9506 29.423L20.0006 26.753L25.0496 29.422C25.2145 29.5093 25.4005 29.5488 25.5867 29.5358C25.7728 29.5229 25.9516 29.4582 26.1029 29.349C26.2542 29.2397 26.3719 29.0903 26.4427 28.9177C26.5135 28.745 26.5346 28.556 26.5036 28.372L25.5376 22.707L29.6316 18.693C29.7867 18.5404 29.8878 18.3413 29.9196 18.126ZM24.6506 22.176C24.5929 22.2325 24.5498 22.3021 24.5249 22.3789C24.5 22.4557 24.494 22.5374 24.5076 22.617L25.5176 28.538L20.2336 25.745C20.1617 25.7072 20.0818 25.6874 20.0006 25.6874C19.9194 25.6874 19.8394 25.7072 19.7676 25.745L14.4836 28.539L15.4936 22.617C15.5071 22.5374 15.5012 22.4557 15.4763 22.3789C15.4514 22.3021 15.4082 22.2325 15.3506 22.176L11.0706 17.979L16.9826 17.115C17.063 17.1033 17.1394 17.0721 17.2051 17.0242C17.2708 16.9763 17.3238 16.9131 17.3596 16.84L20.0006 11.459L22.6406 16.841C22.6764 16.9142 22.7296 16.9775 22.7954 17.0254C22.8613 17.0733 22.9379 17.1044 23.0186 17.116L28.9316 17.979L24.6506 22.176Z" fill="white"/>
</svg>
