<svg width="285" height="285" viewBox="0 0 285 285" fill="none" xmlns="http://www.w3.org/2000/svg">
<mask id="mask0_1543_77599" style="mask-type:luminance" maskUnits="userSpaceOnUse" x="0" y="0" width="285" height="285">
<path d="M284.031 0.5H0.96875V284.5H284.031V0.5Z" fill="white"/>
</mask>
<g mask="url(#mask0_1543_77599)">
<mask id="mask1_1543_77599" style="mask-type:luminance" maskUnits="userSpaceOnUse" x="-9" y="-9" width="303" height="303">
<path d="M-8.46875 -8.96484H293.465V293.969H-8.46875V-8.96484Z" fill="white"/>
</mask>
<g mask="url(#mask1_1543_77599)">
<mask id="mask2_1543_77599" style="mask-type:luminance" maskUnits="userSpaceOnUse" x="-9" y="-9" width="303" height="303">
<path d="M-8.46875 -8.96484H293.465V293.969H-8.46875V-8.96484Z" fill="white"/>
</mask>
<g mask="url(#mask2_1543_77599)">
<path d="M52.7398 107.344C54.1785 107.344 55.3467 108.727 55.3467 110.431C55.3467 112.135 54.1785 113.519 52.7398 113.519C51.301 113.519 50.1328 112.135 50.1328 110.431C50.1328 108.727 51.301 107.344 52.7398 107.344Z" fill="#FFD13B"/>
<path d="M164.739 93.7138L163.665 98.8356L159.187 96.6916L160.261 91.5698L164.739 93.7138Z" fill="#FFB53B"/>
<path d="M164.891 169.668L164.006 174.234L160.186 172.295L161.071 167.729L164.891 169.668Z" fill="#71E183"/>
<path d="M39.5678 220.433L38.6324 223.326L35.3279 222.242L36.2633 219.348L39.5678 220.433Z" fill="#FFC33B"/>
<path d="M86.8792 94.7982L84.3795 98.3397L77.1404 97.5345L79.6401 93.993L86.8792 94.7982Z" fill="#FFAE3B"/>
<path d="M220.473 141.984L217.252 146.188L208.061 145.33L211.282 141.125L220.473 141.984Z" fill="#FFCA3B"/>
<path d="M105.695 143.526L102.453 147.634L93.248 146.832L96.4902 142.725L105.695 143.526Z" fill="#FF533B"/>
<path d="M221.976 86.0093L226.613 81.8588L227.522 88.809L221.976 86.0093Z" fill="#FF6F3B"/>
<path d="M72.9471 132.053L75.5725 128.557L76.3815 134.747L72.9471 132.053Z" fill="#FF613B"/>
<path d="M197.091 197.115L199.373 194.482L199.972 199.064L197.091 197.115Z" fill="#FF6F3B"/>
<path d="M87.4795 52.818L86.16 56.7262L81.5645 55.283L82.884 51.3748L87.4795 52.818Z" fill="#71E183"/>
<path d="M214.472 82.15L212.239 85.2878L205.784 84.5813L208.016 81.4435L214.472 82.15Z" fill="#FFCA3B"/>
<path d="M60.8801 155.601L64.9736 151.935L65.7759 158.076L60.8801 155.601Z" fill="#FCC852"/>
<path d="M205.087 240.668L210.262 237.374L210.931 242.5L205.087 240.668Z" fill="#FCCE52"/>
<path d="M150.756 81.6939L157.279 78.8723L157.782 82.7189L150.756 81.6939Z" fill="#FCCE52"/>
<path d="M91.8288 214.331L96.125 210.846L96.8735 216.576L91.8288 214.331Z" fill="#FCB652"/>
<path d="M182.183 109.273L185.325 106.391L185.958 111.237L182.183 109.273Z" fill="#FCB652"/>
<path d="M200.681 66.0929C200.185 62.0062 200.114 57.5989 200.409 53.3164" stroke="#FCD452" stroke-width="31.5929"/>
<path d="M156.114 208.522C159.407 208.974 162.866 209.273 166.047 209.902" stroke="#71E183" stroke-width="28.5718"/>
<path d="M112.428 77.6841C106.41 78.4318 100.554 78.8433 95.4766 76.9062" stroke="#FCA452" stroke-width="6.73512"/>
<path d="M180.819 156.308C183.076 153.407 185.246 150.648 188.094 149.168" stroke="#FFAE3B" stroke-width="2.7548"/>
<path d="M49.1351 206.411C53.1148 206.519 54.9856 210.485 55.4297 215.645" stroke="#FCB652" stroke-width="24.4576"/>
<path d="M57.5222 53.2315C50.9253 51.2007 46.0751 53.3749 41.7891 56.3008" stroke="#FFAE3B" stroke-width="9.47101"/>
</g>
<mask id="mask3_1543_77599" style="mask-type:luminance" maskUnits="userSpaceOnUse" x="-9" y="-9" width="303" height="303">
<path d="M293.469 293.969H-8.46481V-8.9646H293.469V293.969Z" fill="white"/>
</mask>
<g mask="url(#mask3_1543_77599)">
<path d="M198.321 159.57C197.058 159.57 196.032 158.173 196.032 156.453C196.032 154.732 197.058 153.335 198.321 153.335C199.584 153.335 200.609 154.732 200.609 156.453C200.609 158.173 199.584 159.57 198.321 159.57Z" fill="#FFAC23"/>
<g opacity="0.01">
<path d="M134.018 149.762L129.445 149.576L128.851 143.683L133.424 143.869L134.018 149.762Z" fill="#71E183"/>
</g>
<path d="M220.464 97.8165L217.327 96.9922L216.079 91.7116L219.216 92.5358L220.464 97.8165Z" fill="#FF9C23"/>
<path d="M81.5026 149.168L77.9948 149.296L77.8667 145.258L81.3744 145.13L81.5026 149.168Z" fill="#FF9C23"/>
<path d="M174.063 160.152L171.027 158.96L169.343 153.149L172.379 154.341L174.063 160.152Z" fill="#71E183"/>
<g opacity="0.718173">
<path d="M147.488 163.663L152.906 166.618L146.79 169.814L147.488 163.663Z" fill="#71E183"/>
</g>
<path d="M89.5992 113.558L95.8916 115.301L87.412 119.732L89.5992 113.558Z" fill="#FFB423"/>
<path d="M56.6098 76.706C56.6704 74.9549 58.5072 73.5961 60.709 73.6737C62.9108 73.7513 64.6493 75.2361 64.5887 76.9872C64.5281 78.7383 62.6912 80.0971 60.4895 80.0195C58.2877 79.9419 56.5492 78.4571 56.6098 76.706Z" fill="#FFA423"/>
<g opacity="0.718173">
<path d="M144.213 148.711L140.784 146.627L137.993 138.754L141.422 140.838L144.213 148.711Z" fill="#71E183"/>
</g>
<path d="M86.4783 181.139L83.8652 180.781L83.2221 176.967L85.8352 177.325L86.4783 181.139Z" fill="#71E183"/>
<path d="M135.825 67.0485L132.273 66.6871L131.55 61.7235L135.102 62.085L135.825 67.0485Z" fill="#FCC252"/>
<path d="M128.269 60.3897L135.568 65.2651L128.061 69.1888L128.269 60.3897Z" fill="#FCB052"/>
<path d="M117.044 197.096L121.4 198.784L115.922 201.647L117.044 197.096Z" fill="#71E183"/>
<g opacity="0.939191">
<path d="M145.087 90.0592L149.256 91.0108L143.472 94.033L145.087 90.0592Z" fill="#FCAA52"/>
</g>
<path d="M130.49 167.523L136.096 170.929L130.054 174.087L130.49 167.523Z" fill="#71E183"/>
<g opacity="0.0608275">
<path d="M141.906 141.322C141.906 141.322 141.111 141.418 139.775 141.754" stroke="#FFBA00" stroke-width="14.4072"/>
</g>
<path d="M129.908 98.6089C128.615 99.5638 127.537 100.92 126.811 102.741C123.328 111.483 138.407 114.658 142.79 101.408" stroke="#71E183" stroke-width="34.0037"/>
<path d="M125.136 139.781C117.366 132.477 109.071 138.549 112.058 142.712C114.349 145.903 121.324 138.928 124.949 131.62" stroke="#71E183" stroke-width="19.5681"/>
<g opacity="0.156369">
<path d="M212.778 202.619C212.778 202.619 213.983 201.396 215.669 200.04" stroke="#71E183" stroke-width="16.6076"/>
</g>
</g>
</g>
<mask id="mask4_1543_77599" style="mask-type:luminance" maskUnits="userSpaceOnUse" x="77" y="76" width="131" height="133">
<path d="M77.0781 76.8672H207.916V208.138H77.0781V76.8672Z" fill="white"/>
</mask>
<g mask="url(#mask4_1543_77599)">
<g opacity="0.474684">
<path d="M142.235 84.5508C173.461 84.5508 198.814 109.988 198.814 141.317C198.814 172.646 173.461 198.083 142.235 198.083C111.009 198.083 85.6562 172.646 85.6562 141.317C85.6562 109.988 111.009 84.5508 142.235 84.5508Z" fill="#146AAB" fill-opacity="0.4"/>
</g>
<g opacity="0.706119">
<path d="M142.239 96.2266C167.202 96.2266 187.47 116.562 187.47 141.607C187.47 166.653 167.202 186.988 142.239 186.988C117.276 186.988 97.0078 166.653 97.0078 141.607C97.0078 116.562 117.276 96.2266 142.239 96.2266Z" fill="#7A85FF"/>
</g>
<path d="M142.244 95.918C167.373 95.918 187.776 116.389 187.776 141.601C187.776 166.814 167.373 187.285 142.244 187.285C117.114 187.285 96.7109 166.814 96.7109 141.601C96.7109 116.389 117.114 95.918 142.244 95.918Z" fill="#146AAB"/>
<path d="M121.406 143.657L134.567 156.605L161.143 129.043" stroke="white" stroke-width="8" stroke-linecap="round" stroke-linejoin="round"/>
</g>
</g>
</svg>
