<svg width="14" height="14" viewBox="0 0 14 14" fill="none" xmlns="http://www.w3.org/2000/svg">
<g clip-path="url(#clip0_1_57194)">
<path d="M7.00065 12.25C7.69009 12.25 8.37278 12.1142 9.00974 11.8503C9.6467 11.5865 10.2255 11.1998 10.713 10.7123C11.2005 10.2248 11.5872 9.64603 11.851 9.00907C12.1149 8.37211 12.2507 7.68942 12.2507 6.99998C12.2507 6.31054 12.1149 5.62785 11.851 4.99089C11.5872 4.35393 11.2005 3.77518 10.713 3.28767C10.2255 2.80016 9.6467 2.41345 9.00974 2.14961C8.37278 1.88577 7.69009 1.74998 7.00065 1.74998C5.60826 1.74998 4.27291 2.3031 3.28834 3.28767C2.30377 4.27224 1.75065 5.60759 1.75065 6.99998C1.75065 8.39237 2.30377 9.72772 3.28834 10.7123C4.27291 11.6969 5.60826 12.25 7.00065 12.25ZM13.4173 6.99998C13.4173 10.5437 10.5444 13.4166 7.00065 13.4166C3.4569 13.4166 0.583984 10.5437 0.583984 6.99998C0.583984 3.45623 3.4569 0.583313 7.00065 0.583313C10.5444 0.583313 13.4173 3.45623 13.4173 6.99998ZM8.75065 9.57481L6.41732 7.24148V3.20831H7.58398V6.75848L9.57548 8.74998L8.75065 9.57481Z" fill="#9CA3AF"/>
</g>
<defs>
<clipPath id="clip0_1_57194">
<rect width="14" height="14" fill="white"/>
</clipPath>
</defs>
</svg>
