<svg width="32" height="32" viewBox="0 0 32 32" fill="none" xmlns="http://www.w3.org/2000/svg">
<rect y="0.000244141" width="32" height="32" rx="16" fill="#EDEFF2"/>
<path d="M12.043 11.8337C12.043 11.668 12.1088 11.509 12.226 11.3918C12.3432 11.2746 12.5022 11.2087 12.668 11.2087H19.3346C19.5004 11.2087 19.6594 11.2746 19.7766 11.3918C19.8938 11.509 19.9596 11.668 19.9596 11.8337C19.9596 11.9995 19.8938 12.1585 19.7766 12.2757C19.6594 12.3929 19.5004 12.4587 19.3346 12.4587H12.668C12.5022 12.4587 12.3432 12.3929 12.226 12.2757C12.1088 12.1585 12.043 11.9995 12.043 11.8337ZM12.668 14.1254C12.5022 14.1254 12.3432 14.1913 12.226 14.3085C12.1088 14.4257 12.043 14.5846 12.043 14.7504C12.043 14.9162 12.1088 15.0751 12.226 15.1923C12.3432 15.3096 12.5022 15.3754 12.668 15.3754H16.8346C17.0004 15.3754 17.1594 15.3096 17.2766 15.1923C17.3938 15.0751 17.4596 14.9162 17.4596 14.7504C17.4596 14.5846 17.3938 14.4257 17.2766 14.3085C17.1594 14.1913 17.0004 14.1254 16.8346 14.1254H12.668Z" fill="black"/>
<path fill-rule="evenodd" clip-rule="evenodd" d="M14.2862 7.04175C13.147 7.04175 12.2279 7.04175 11.5054 7.13925C10.7554 7.23925 10.1237 7.45591 9.62203 7.95675C9.12036 8.45841 8.90536 9.09008 8.80453 9.84008C8.70703 10.5626 8.70703 11.4817 8.70703 12.6209V19.3792C8.70703 20.5184 8.70703 21.4376 8.80453 22.1601C8.90453 22.9101 9.1212 23.5417 9.62203 24.0434C10.1237 24.5451 10.7554 24.7601 11.5054 24.8617C12.2279 24.9584 13.147 24.9584 14.2862 24.9584H17.7112C18.8504 24.9584 19.7695 24.9584 20.492 24.8617C21.242 24.7601 21.8737 24.5451 22.3754 24.0434C22.877 23.5417 23.092 22.9101 23.1937 22.1601C23.2904 21.4376 23.2904 20.5184 23.2904 19.3792V12.6209C23.2904 11.4817 23.2904 10.5626 23.1937 9.84008C23.092 9.09008 22.877 8.45841 22.3754 7.95675C21.8737 7.45508 21.242 7.24008 20.492 7.13925C19.7695 7.04175 18.8504 7.04175 17.7112 7.04175H14.2862ZM10.507 8.84091C10.7379 8.61008 11.0612 8.46008 11.6737 8.37758C12.302 8.29341 13.137 8.29175 14.3329 8.29175H17.6662C18.862 8.29175 19.6962 8.29341 20.3262 8.37758C20.9379 8.46008 21.2612 8.61091 21.492 8.84091C21.7229 9.07175 21.8729 9.39508 21.9554 10.0076C22.0395 10.6359 22.0412 11.4709 22.0412 12.6667V18.7084H12.4837C11.802 18.7084 11.337 18.7084 10.9379 18.8151C10.5871 18.9099 10.2554 19.0644 9.95703 19.2717V12.6667C9.95703 11.4709 9.9587 10.6359 10.0429 10.0067C10.1254 9.39508 10.277 9.07175 10.507 8.84091ZM9.97953 21.2076C9.99203 21.5026 10.012 21.7617 10.0429 21.9934C10.1254 22.6051 10.2762 22.9284 10.5062 23.1592C10.737 23.3901 11.0604 23.5401 11.6729 23.6226C12.3012 23.7067 13.1362 23.7084 14.332 23.7084H17.6654C18.8612 23.7084 19.6954 23.7067 20.3254 23.6226C20.937 23.5401 21.2604 23.3892 21.4912 23.1592C21.722 22.9284 21.872 22.6051 21.9545 21.9926C22.0237 21.4801 22.037 20.8301 22.0395 19.9584H12.5804C11.7654 19.9584 11.4804 19.9634 11.2612 20.0226C10.9675 20.1014 10.6973 20.2504 10.4741 20.4568C10.2508 20.6633 10.0811 20.9209 9.97953 21.2076Z" fill="black"/>
</svg>
