<svg width="32" height="32" viewBox="0 0 32 32" fill="none" xmlns="http://www.w3.org/2000/svg">
<rect y="0.00012207" width="32" height="32" rx="16" fill="#EDEFF2"/>
<path fill-rule="evenodd" clip-rule="evenodd" d="M12.6654 11.8333V11C12.6654 10.1159 13.0166 9.26806 13.6417 8.64294C14.2668 8.01782 15.1146 7.66663 15.9987 7.66663C16.8828 7.66663 17.7306 8.01782 18.3557 8.64294C18.9808 9.26806 19.332 10.1159 19.332 11V11.8333H21.832C22.292 11.8333 22.6654 12.2075 22.6654 12.6725V22.6733C22.6654 23.59 21.9195 24.3333 21.0037 24.3333H10.9937C10.5533 24.3333 10.1309 24.1585 9.81931 23.8472C9.50774 23.5359 9.33247 23.1137 9.33203 22.6733V12.6733C9.33203 12.2083 9.70286 11.8333 10.1654 11.8333H12.6654ZM13.6654 11.8333H18.332V11C18.332 10.3811 18.0862 9.78763 17.6486 9.35004C17.211 8.91246 16.6175 8.66663 15.9987 8.66663C15.3799 8.66663 14.7864 8.91246 14.3488 9.35004C13.9112 9.78763 13.6654 10.3811 13.6654 11V11.8333ZM12.6654 12.8333H10.332V22.6733C10.332 23.0366 10.6287 23.3333 10.9937 23.3333H21.0037C21.1789 23.3333 21.3469 23.2638 21.471 23.1401C21.595 23.0164 21.6649 22.8485 21.6654 22.6733V12.8333H19.332V15.1666H18.332V12.8333H13.6654V15.1666H12.6654V12.8333Z" fill="black"/>
</svg>
