<svg width="32" height="32" viewBox="0 0 32 32" fill="none" xmlns="http://www.w3.org/2000/svg">
<rect width="32" height="32" rx="16" fill="#EDEFF2"/>
<path d="M19.86 9C20.4381 8.99989 20.9983 9.20011 21.4454 9.56658C21.8925 9.93306 22.1987 10.4431 22.312 11.01L22.509 12H23.25C23.4312 12 23.6063 12.0656 23.7429 12.1848C23.8795 12.3039 23.9684 12.4684 23.993 12.648L24 12.75C24 12.9312 23.9344 13.1063 23.8152 13.2429C23.6961 13.3795 23.5316 13.4684 23.352 13.493L23.25 13.5H22.809L22.921 14.06C23.2324 14.1511 23.5059 14.3406 23.7004 14.6002C23.8949 14.8599 24.0001 15.1756 24 15.5V20.5C24 20.8978 23.842 21.2794 23.5607 21.5607C23.2794 21.842 22.8978 22 22.5 22H22V23C22 23.2652 21.8946 23.5196 21.7071 23.7071C21.5196 23.8946 21.2652 24 21 24C20.7348 24 20.4804 23.8946 20.2929 23.7071C20.1054 23.5196 20 23.2652 20 23V22H12V23C12 23.2652 11.8946 23.5196 11.7071 23.7071C11.5196 23.8946 11.2652 24 11 24C10.7348 24 10.4804 23.8946 10.2929 23.7071C10.1054 23.5196 10 23.2652 10 23V22H9.5C9.10218 22 8.72064 21.842 8.43934 21.5607C8.15804 21.2794 8 20.8978 8 20.5V15.5C7.99994 15.1756 8.10506 14.8599 8.2996 14.6002C8.49414 14.3406 8.76761 14.1511 9.079 14.06L9.19 13.5H8.75C8.55109 13.5 8.36032 13.421 8.21967 13.2803C8.07902 13.1397 8 12.9489 8 12.75C8 12.5511 8.07902 12.3603 8.21967 12.2197C8.36032 12.079 8.55109 12 8.75 12H9.49L9.688 11.01C9.8013 10.4431 10.1075 9.93306 10.5546 9.56658C11.0017 9.20011 11.5619 8.99989 12.14 9H19.86ZM22.5 15H9.5C9.36739 15 9.24021 15.0527 9.14645 15.1464C9.05268 15.2402 9 15.3674 9 15.5V20.5C9 20.6326 9.05268 20.7598 9.14645 20.8536C9.24021 20.9473 9.36739 21 9.5 21H22.5C22.6326 21 22.7598 20.9473 22.8536 20.8536C22.9473 20.7598 23 20.6326 23 20.5V15.5C23 15.3674 22.9473 15.2402 22.8536 15.1464C22.7598 15.0527 22.6326 15 22.5 15ZM12 17C12.2652 17 12.5196 17.1054 12.7071 17.2929C12.8946 17.4804 13 17.7348 13 18C13 18.2652 12.8946 18.5196 12.7071 18.7071C12.5196 18.8946 12.2652 19 12 19C11.7348 19 11.4804 18.8946 11.2929 18.7071C11.1054 18.5196 11 18.2652 11 18C11 17.7348 11.1054 17.4804 11.2929 17.2929C11.4804 17.1054 11.7348 17 12 17ZM20 17C20.2652 17 20.5196 17.1054 20.7071 17.2929C20.8946 17.4804 21 17.7348 21 18C21 18.2652 20.8946 18.5196 20.7071 18.7071C20.5196 18.8946 20.2652 19 20 19C19.7348 19 19.4804 18.8946 19.2929 18.7071C19.1054 18.5196 19 18.2652 19 18C19 17.7348 19.1054 17.4804 19.2929 17.2929C19.4804 17.1054 19.7348 17 20 17ZM19.86 10H12.14C11.7932 9.99998 11.4571 10.1201 11.1889 10.34C10.9207 10.5599 10.737 10.8659 10.669 11.206L10.109 14H21.89L21.331 11.206C21.2631 10.8661 21.0795 10.5602 20.8115 10.3403C20.5435 10.1205 20.2076 10.0002 19.861 10" fill="black"/>
</svg>
