<svg width="32" height="32" viewBox="0 0 32 32" fill="none" xmlns="http://www.w3.org/2000/svg">
<rect width="32" height="32" rx="16" fill="#EDEFF2"/>
<path d="M11.5711 21.3124L14.2317 18.6518L13.348 17.7681L10.6874 20.4287L10.1917 19.9331C10.0745 19.8159 9.91559 19.7501 9.74987 19.7501C9.58414 19.7501 9.4252 19.8159 9.30799 19.9331L6.80799 22.4331C6.69082 22.5503 6.625 22.7092 6.625 22.8749C6.625 23.0407 6.69082 23.1996 6.80799 23.3168L8.68299 25.1918C8.8002 25.309 8.95914 25.3748 9.12487 25.3748C9.29059 25.3748 9.44954 25.309 9.56674 25.1918L12.0667 22.6918C12.1839 22.5746 12.2497 22.4157 12.2497 22.2499C12.2497 22.0842 12.1839 21.9253 12.0667 21.8081L11.5711 21.3124ZM9.12487 23.8662L8.13362 22.8749L9.74987 21.2587L10.7411 22.2499L9.12487 23.8662Z" fill="black"/>
<path d="M20.9999 24.75C20.0057 24.7489 19.0526 24.3534 18.3496 23.6504C17.6465 22.9474 17.2511 21.9942 17.2499 21C17.2499 20.6733 17.2941 20.348 17.3812 20.0331L11.9674 14.6188C11.652 14.7045 11.3268 14.7486 10.9999 14.75C10.3889 14.7525 9.78669 14.605 9.24597 14.3205C8.70526 14.036 8.24258 13.6232 7.89852 13.1183C7.55445 12.6134 7.3395 12.0318 7.27252 11.4245C7.20553 10.8172 7.28855 10.2028 7.5143 9.63501L7.86305 8.74689L9.93305 10.8169C10.052 10.9307 10.2103 10.9942 10.3749 10.9942C10.5395 10.9942 10.6978 10.9307 10.8168 10.8169C10.934 10.6997 10.9998 10.5407 10.9998 10.375C10.9998 10.2093 10.934 10.0503 10.8168 9.93314L8.74555 7.86189L9.63493 7.51376C10.2027 7.28815 10.8172 7.20526 11.4245 7.27234C12.0318 7.33943 12.6134 7.55445 13.1182 7.89856C13.6231 8.24266 14.0359 8.70535 14.3203 9.24607C14.6048 9.78679 14.7523 10.389 14.7499 11C14.75 11.3267 14.7058 11.652 14.6187 11.9669L20.0331 17.3813C20.3483 17.2956 20.6733 17.2515 20.9999 17.25C21.6109 17.2476 22.2132 17.3951 22.7539 17.6795C23.2946 17.964 23.7573 18.3768 24.1013 18.8817C24.4454 19.3866 24.6604 19.9682 24.7273 20.5755C24.7943 21.1828 24.7113 21.7973 24.4856 22.365L24.1374 23.2531L22.0668 21.1831C21.9479 21.0696 21.7897 21.0062 21.6252 21.0062C21.4608 21.0062 21.3026 21.0696 21.1837 21.1831C21.0664 21.3003 21.0005 21.4592 21.0004 21.6249C21.0003 21.7906 21.066 21.9496 21.1831 22.0669L23.2537 24.1375L22.3649 24.4863C21.9303 24.6585 21.4674 24.7479 20.9999 24.75ZM12.2893 13.1725L18.8268 19.7113L18.6774 20.0919C18.531 20.4578 18.4738 20.8533 18.5105 21.2457C18.5472 21.6381 18.6767 22.0162 18.8883 22.3487C19.0999 22.6812 19.3876 22.9585 19.7276 23.1578C20.0676 23.3572 20.4502 23.4727 20.8437 23.495L20.2993 22.9513C20.1252 22.7771 19.987 22.5704 19.8928 22.3429C19.7985 22.1154 19.75 21.8716 19.75 21.6253C19.75 21.3791 19.7985 21.1352 19.8928 20.9077C19.987 20.6802 20.1252 20.4735 20.2993 20.2994C20.6563 19.958 21.1313 19.7675 21.6252 19.7675C22.1192 19.7675 22.5941 19.958 22.9512 20.2994L23.4949 20.8438C23.4726 20.4502 23.3569 20.0677 23.1575 19.7277C22.9581 19.3877 22.6807 19.1 22.3482 18.8884C22.0157 18.6768 21.6376 18.5473 21.2451 18.5106C20.8527 18.4739 20.4571 18.5312 20.0912 18.6775L19.7106 18.8269L13.1731 12.2894L13.3231 11.9081C13.4693 11.5422 13.5264 11.1466 13.4896 10.7542C13.4529 10.3618 13.3233 9.98379 13.1116 9.65134C12.8999 9.31889 12.6122 9.04156 12.2722 8.84224C11.9322 8.64292 11.5497 8.52733 11.1562 8.50501L11.6999 9.04876C11.8741 9.22288 12.0122 9.42959 12.1065 9.6571C12.2007 9.8846 12.2492 10.1284 12.2492 10.3747C12.2492 10.621 12.2007 10.8648 12.1065 11.0923C12.0122 11.3198 11.8741 11.5265 11.6999 11.7006C11.3429 12.042 10.868 12.2325 10.374 12.2325C9.88003 12.2325 9.4051 12.042 9.04805 11.7006L8.5043 11.1563C8.52658 11.5498 8.64215 11.9323 8.84148 12.2723C9.0408 12.6123 9.31816 12.9 9.65063 13.1116C9.98311 13.3233 10.3612 13.4528 10.7536 13.4894C11.146 13.5261 11.5415 13.4689 11.9074 13.3225L12.2893 13.1725Z" fill="black"/>
<path d="M24.2019 7.78124C23.8448 7.43989 23.3699 7.24939 22.8759 7.24939C22.382 7.24939 21.907 7.43989 21.55 7.78124L16.875 12.4562L17.7587 13.34L22.4338 8.66499C22.5528 8.55136 22.7111 8.48797 22.8756 8.48797C23.0402 8.48797 23.1984 8.55136 23.3175 8.66499C23.4347 8.78219 23.5005 8.94114 23.5005 9.10686C23.5005 9.27259 23.4347 9.43154 23.3175 9.54874L18.6425 14.2237L19.5263 15.1081L24.2013 10.4331C24.5525 10.0812 24.7498 9.60436 24.7498 9.10718C24.7498 8.60999 24.5531 8.13312 24.2019 7.78124Z" fill="black"/>
</svg>
