<svg width="24" height="15" viewBox="0 0 24 15" fill="none" xmlns="http://www.w3.org/2000/svg">
<path d="M9.06601 7.25301C9.06601 4.94001 10.162 2.879 11.868 1.551C10.577 0.544 8.97899 -0.00199453 7.33499 5.47503e-06C3.28399 5.47503e-06 0 3.24701 0 7.25301C0 11.259 3.28399 14.506 7.33499 14.506C8.97899 14.509 10.577 13.962 11.868 12.955C10.162 11.628 9.06601 9.56701 9.06601 7.25301Z" fill="#EB001B"/>
<path d="M23.6581 7.25301C23.6581 11.259 20.3741 14.506 16.3231 14.506C14.6781 14.509 13.0811 13.962 11.7891 12.955C13.4961 11.627 14.5911 9.56701 14.5911 7.25301C14.5911 4.94001 13.4961 2.879 11.7891 1.551C13.0811 0.544 14.6781 -0.00199453 16.3231 5.47503e-06C20.3741 5.47503e-06 23.6581 3.24701 23.6581 7.25301Z" fill="#F8F9FA"/>
</svg>
